<svg height="512pt" viewBox="-36 0 512 512.0006" width="512pt" xmlns="http://www.w3.org/2000/svg"><path d="m81.78125 460.554688c-6.621094-10.078126-15.4375-23.347657-24.921875-36.570313-7.050781-9.832031-13.296875-19.941406-18.558594-30.046875-1.921875-3.683594-6.464843-5.113281-10.148437-3.195312-3.683594 1.921874-5.113282 6.464843-3.195313 10.148437 5.59375 10.730469 12.214844 21.453125 19.679688 31.859375 9.324219 13.003906 18.03125 26.101562 24.570312 36.0625l26.128907 39.792969c1.445312 2.199219 3.847656 3.394531 6.296874 3.394531 1.414063 0 2.847657-.398438 4.121094-1.234375 3.472656-2.28125 4.4375-6.945313 2.15625-10.417969zm0 0"/><path d="m367.597656 152.800781c8.417969 10.015625 29.515625 37.367188 43.628906 74.945313 1.132813 3.019531 4 4.878906 7.042969 4.878906.878907 0 1.773438-.15625 2.644531-.480469 3.886719-1.460937 5.855469-5.796875 4.394532-9.6875-14.929688-39.757812-37.28125-68.726562-46.195313-79.332031-5.707031-6.792969-10.519531-13.320312-14.710937-19.949219-18.078125-28.609375-26.792969-57-25.203125-82.101562 1.191406-18.792969 7.773437-29.355469 7.8125-29.421875 2.273437-3.476563 1.296875-8.136719-2.179688-10.410156-3.476562-2.273438-8.136719-1.2968755-10.410156 2.179687-1.320313 2.015625-31.726563 50.273437 17.261719 127.789063 4.558594 7.210937 9.765625 14.273437 15.914062 21.589843zm0 0"/><path d="m435.480469 257.027344c-.867188-4.0625-4.875-6.65625-8.925781-5.785156-4.0625.863281-6.65625 4.859374-5.785157 8.921874 12.195313 57.214844-.347656 112.332032-37.269531 163.820313-9.484375 13.226563-18.300781 26.492187-24.921875 36.574219l-26.132813 39.789062c-2.277343 3.472656-1.3125 8.136719 2.160157 10.417969 1.273437.835937 2.703125 1.234375 4.121093 1.234375 2.449219 0 4.851563-1.191406 6.292969-3.394531l26.132813-39.789063c6.539062-9.960937 15.246094-23.0625 24.570312-36.0625 39.496094-55.074218 52.871094-114.195312 39.757813-175.726562zm0 0"/><path d="m25.027344 362.777344c-33.902344-101.785156 27.964844-186.453125 47.734375-209.976563 6.148437-7.316406 11.355469-14.378906 15.914062-21.589843 48.984375-77.515626 18.582031-125.773438 17.261719-127.789063-2.273438-3.4765625-6.949219-4.476563-10.425781-2.199219-3.476563 2.273438-4.464844 6.914063-2.191407 10.390625.0625.101563 6.648438 10.667969 7.839844 29.460938 1.589844 25.101562-7.125 53.492187-25.203125 82.097656-4.191406 6.632813-9.003906 13.15625-14.714843 19.949219-21.035157 25.039062-86.859376 115.214844-50.488282 224.410156 1.050782 3.152344 3.988282 5.144531 7.136719 5.144531.785156 0 1.589844-.121093 2.378906-.386719 3.941407-1.3125 6.070313-5.570312 4.757813-9.511718zm0 0"/><path d="m305.726562 386.480469c-19.691406-.363281-37.527343-7.132813-51.582031-19.578125-14.019531-12.414063-22.898437-29.242188-25.671875-48.671875-6.101562-42.699219 15.734375-86.203125 38.207032-112.679688 2.6875-3.167969 2.296874-7.914062-.871094-10.601562-3.164063-2.6875-7.910156-2.296875-10.601563.867187-14.546875 17.144532-26.167969 37.101563-33.605469 57.71875-.589843 1.644532-1.148437 3.289063-1.683593 4.933594-.535157-1.644531-1.09375-3.289062-1.683594-4.933594-7.4375-20.617187-19.058594-40.574218-33.605469-57.71875-2.691406-3.167968-7.4375-3.554687-10.601562-.867187-3.167969 2.6875-3.558594 7.433593-.871094 10.601562 22.46875 26.476563 44.308594 69.980469 38.207031 112.679688-2.773437 19.429687-11.652343 36.257812-25.671875 48.671875-14.054687 12.441406-31.890625 19.210937-51.582031 19.578125-4.15625.078125-7.460937 3.507812-7.382813 7.660156.078126 4.105469 3.429688 7.382813 7.519532 7.382813h.140625c33.359375-.621094 61.929687-17.355469 78.269531-43.566407v146.519531c0 4.15625 3.367188 7.523438 7.523438 7.523438s7.523437-3.367188 7.523437-7.523438v-145.667968c16.425781 25.722656 44.746094 42.101562 77.746094 42.714844h.140625c4.089844 0 7.441406-3.277344 7.519531-7.382813.078125-4.152344-3.226563-7.582031-7.382813-7.660156zm0 0"/><path d="m118.402344 364.804688c-1.085938.097656-2.1875.183593-3.300782.257812-3.503906-.042969-6.976562-.222656-10.324218-.539062-4.125-.386719-7.804688 2.652343-8.195313 6.785156-.386719 4.136718 2.652344 7.804687 6.789063 8.195312 3.851562.359375 7.839844.5625 11.855468.605469h.078126c.160156 0 .320312-.003906.480468-.015625 1.347656-.085938 2.671875-.1875 3.976563-.308594 4.136719-.375 7.1875-4.03125 6.8125-8.167968-.375-4.136719-4.035157-7.179688-8.171875-6.8125zm0 0"/><path d="m186.714844 351.121094c3.949218-3.808594 7.566406-7.957032 10.742187-12.332032 2.4375-3.363281 1.691407-8.066406-1.671875-10.507812-3.363281-2.441406-8.066406-1.691406-10.507812 1.671875-2.652344 3.660156-5.683594 7.136719-9 10.328125-2.992188 2.882812-3.082032 7.644531-.199219 10.636719 1.476563 1.53125 3.445313 2.304687 5.417969 2.304687 1.878906 0 3.757812-.699218 5.21875-2.101562zm0 0"/><path d="m145.558594 374.492188c.777344 0 1.566406-.121094 2.34375-.375 5.191406-1.699219 10.21875-3.769532 14.9375-6.148438 3.710937-1.867188 5.203125-6.390625 3.335937-10.101562-1.871093-3.710938-6.394531-5.199219-10.101562-3.332032-4.050781 2.039063-8.378907 3.820313-12.855469 5.285156-3.949219 1.292969-6.097656 5.542969-4.804688 9.492188 1.035157 3.167969 3.980469 5.179688 7.144532 5.179688zm0 0"/><path d="m28.722656 326.207031c-3.460937 2.300781-4.398437 6.96875-2.097656 10.425781 2.96875 4.46875 6.445312 8.761719 10.328125 12.757813 1.476563 1.515625 3.433594 2.277344 5.394531 2.277344 1.890625 0 3.78125-.707031 5.242188-2.125 2.980468-2.898438 3.046875-7.660157.152344-10.636719-3.238282-3.335938-6.128907-6.902344-8.589844-10.601562-2.300782-3.460938-6.96875-4.398438-10.429688-2.097657zm0 0"/><path d="m67.46875 353.730469c-3.664062-1.96875-8.21875-.59375-10.1875 3.066406-1.964844 3.660156-.59375 8.21875 3.066406 10.1875 4.6875 2.519531 9.679688 4.707031 14.839844 6.507813.820312.285156 1.65625.421874 2.480469.421874 3.109375 0 6.019531-1.945312 7.101562-5.046874 1.367188-3.921876-.703125-8.210938-4.625-9.578126-4.417969-1.542968-8.683593-3.410156-12.675781-5.558593zm0 0"/><path d="m245.425781 326.203125c-3.457031 2.300781-4.398437 6.96875-2.101562 10.429687 2.96875 4.464844 6.445312 8.757813 10.332031 12.757813 1.472656 1.519531 3.433594 2.277344 5.394531 2.277344 1.886719 0 3.78125-.707031 5.242188-2.125 2.980469-2.894531 3.046875-7.65625.152343-10.636719-3.242187-3.335938-6.132812-6.902344-8.589843-10.601562-2.300781-3.457032-6.96875-4.398438-10.429688-2.101563zm0 0"/><path d="m372.773438 354.535156c-4.050782 2.039063-8.375 3.820313-12.851563 5.285156-3.949219 1.292969-6.097656 5.542969-4.804687 9.488282 1.035156 3.171875 3.980468 5.183594 7.144531 5.183594.777343 0 1.566406-.121094 2.34375-.375 5.191406-1.703126 10.21875-3.769532 14.9375-6.148438 3.710937-1.867188 5.203125-6.390625 3.335937-10.101562-1.871094-3.710938-6.394531-5.199219-10.105468-3.332032zm0 0"/><path d="m401.984375 329.953125c-2.65625 3.660156-5.6875 7.136719-9.003906 10.328125-2.992188 2.882812-3.082031 7.644531-.199219 10.636719 1.476562 1.53125 3.445312 2.304687 5.417969 2.304687 1.878906 0 3.757812-.699218 5.214843-2.105468 3.953126-3.804688 7.570313-7.953126 10.742188-12.332032 2.441406-3.359375 1.691406-8.0625-1.667969-10.503906-3.363281-2.4375-8.066406-1.691406-10.503906 1.671875zm0 0"/><path d="m332.007812 380.109375c.15625 0 .316407-.003906.476563-.015625 1.34375-.085938 2.671875-.1875 3.980469-.304688 4.136718-.378906 7.183594-4.035156 6.808594-8.171874-.375-4.136719-4.03125-7.179688-8.167969-6.8125-1.085938.101562-2.183594.1875-3.296875.257812-3.507813-.042969-6.980469-.222656-10.328125-.539062-4.121094-.394532-7.804688 2.648437-8.191407 6.785156-.390624 4.136718 2.648438 7.804687 6.785157 8.195312 3.851562.359375 7.839843.5625 11.855469.605469zm0 0"/><path d="m277.050781 366.984375c4.6875 2.519531 9.679688 4.707031 14.839844 6.507813.820313.285156 1.65625.421874 2.476563.421874 3.109374 0 6.019531-1.945312 7.101562-5.046874 1.371094-3.921876-.699219-8.210938-4.621094-9.578126-4.417968-1.542968-8.679687-3.410156-12.675781-5.558593-3.660156-1.96875-8.222656-.59375-10.1875 3.066406s-.59375 8.21875 3.066406 10.1875zm0 0"/><path d="m111.847656 279.890625c-2.121094 0-4.148437.898437-5.570312 2.46875l-17.984375 19.839844c-2.789063 3.078125-2.554688 7.835937.523437 10.625 3.074219 2.789062 7.832032 2.558593 10.621094-.519531l4.871094-5.371094v24.621094c0 4.15625 3.367187 7.523437 7.519531 7.523437 4.15625 0 7.523437-3.367187 7.523437-7.523437v-24.632813l4.859376 5.375c1.484374 1.644531 3.53125 2.476563 5.582031 2.476563 1.800781 0 3.605469-.640626 5.042969-1.941407 3.082031-2.789062 3.320312-7.542969.53125-10.625l-17.941407-19.839843c-1.425781-1.574219-3.449219-2.476563-5.574219-2.476563 0 0 0 0-.003906 0zm0 0"/><path d="m316.140625 312.304688 4.871094-5.371094v24.625c0 4.152344 3.363281 7.519531 7.519531 7.519531s7.523438-3.367187 7.523438-7.519531v-24.636719l4.863281 5.375c1.484375 1.644531 3.527343 2.476563 5.578125 2.476563 1.800781 0 3.605468-.640626 5.042968-1.941407 3.082032-2.785156 3.320313-7.542969.535157-10.625l-17.945313-19.839843c-1.425781-1.574219-3.449218-2.476563-5.574218-2.476563h-.003907c-2.125 0-4.148437.898437-5.574219 2.472656l-17.980468 19.835938c-2.792969 3.078125-2.558594 7.835937.519531 10.625 3.078125 2.792969 7.839844 2.558593 10.625-.519531zm0 0"/></svg>